<?xml version="1.0" encoding="UTF-8"?><svg id="Calque_1" xmlns="http://www.w3.org/2000/svg" viewBox="0 0 1477.76 260.5"><defs><style>.cls-1{fill:#002f54;} .cls-2{fill:#00beb2;}</style></defs><path class="cls-1" d="M169.68,214.14H41.22v-63.8h72.08c14.31,0,26.57-10.25,29.09-24.34l3.03-16.88H41.22v-62.5h129.54c2.64,0,4.78-2.14,4.78-4.78V10.19c0-2.64-2.14-4.78-4.78-4.78H7.51C3.36,5.41,0,8.77,0,12.92v234.92c0,4.15,3.36,7.51,7.51,7.51h162.16c4.15,0,7.51-3.36,7.51-7.51v-26.19c0-4.15-3.36-7.51-7.51-7.51"/><path class="cls-1" d="M1235.84,214.14h-128.46v-63.8h72.08c14.31,0,26.57-10.25,29.09-24.34l3.03-16.88h-104.2v-62.5h129.54c2.64,0,4.78-2.14,4.78-4.78V10.19c0-2.64-2.14-4.78-4.78-4.78h-163.24c-4.15,0-7.51,3.36-7.51,7.51v234.92c0,4.15,3.36,7.51,7.51,7.51h162.16c4.15,0,7.51-3.36,7.51-7.51v-26.19c0-4.15-3.36-7.51-7.51-7.51"/><path class="cls-1" d="M397.45,5.41h-26.32c-4.15,0-7.51,3.36-7.51,7.51v143.97c0,34.33-27.93,62.26-62.26,62.26s-62.26-27.93-62.26-62.26V12.92c0-4.15-3.36-7.51-7.51-7.51h-26.32c-4.15,0-7.51,3.36-7.51,7.51v143.97c0,57.14,46.48,103.61,103.61,103.62,57.14,0,103.61-46.48,103.61-103.62V12.92c0-4.15-3.36-7.51-7.51-7.51"/><path class="cls-2" d="M791.91,255.35h-71.01c-19.12,0-35.56-13.56-39.2-32.33l-1.72-8.84h152.84l-1.72,8.84c-3.64,18.77-20.08,32.33-39.2,32.33Z"/><path class="cls-1" d="M1364.8,41.19c39.36,0,71.38,32.02,71.38,71.38v34.81c0,39.36-32.02,71.38-71.38,71.38s-71.38-32.02-71.38-71.38v-34.81c0-39.36,32.02-71.38,71.39-71.38M1364.8,0h0C1302.42,0,1251.85,50.57,1251.85,112.95v34.06c0,62.38,50.57,112.95,112.95,112.95h0c62.38,0,112.95-50.57,112.95-112.95v-34.06C1477.76,50.57,1427.19,0,1364.8,0h0Z"/><path class="cls-1" d="M1047.03,40.06V12.92c0-4.15-3.36-7.51-7.51-7.51h-177.08l3.03,16.88c2.53,14.09,14.78,24.34,29.09,24.34h97.8l-113.65,150.03L773.68,10.42C770.06,3.98,763.24,0,755.85,0h0c-7.39,0-14.21,3.98-17.84,10.42l-106.75,189.49s-10.83-14.56-40.71-53.96c26.45-15.02,39.83-40.82,39.47-66.04-.51-35.88-29.65-74.5-92.44-74.5h-100.13c-4.15,0-7.51,3.36-7.51,7.51v234.91c0,4.15,3.36,7.51,7.51,7.51h26.18c4.15,0,7.51-3.36,7.51-7.51v-88.82h80.23l67.1,93.22c1.39,1.95,3.63,3.11,6.02,3.11h16.21c2.65,0,5.1-1.42,6.42-3.72l108.76-190.34,108.66,190.24c1.32,2.3,3.76,3.72,6.42,3.72h168.55c4.15,0,7.51-3.36,7.51-7.51v-25.82c0-4.15-3.36-7.51-7.51-7.51h-121.94l127.96-169.85c.97-1.3,1.5-2.88,1.5-4.5ZM539.37,117.81h-68.21V46.63h66.44c35.06,0,50.99,17.01,51.23,33.87.24,17.24-15.13,36.24-49.45,37.31Z"/></svg>
