<svg width="531" height="556" viewBox="0 0 531 556" fill="none" xmlns="http://www.w3.org/2000/svg">
<g clip-path="url(#clip0_140_117)">
<path d="M254.13 341.14H297.92V353.55H197.93V341.14H241.72L241.7 300.94C241.7 300.41 241.7 299.88 241.73 299.36V260.73H197.94V248.32H254.14V266.95C264.11 255.06 278.53 248.32 294.32 248.32H297.91V260.73H294.32C272.49 260.73 254.85 277.81 254.14 299.61V341.14H254.13Z" fill="#151529"/>
<path d="M121.71 248.332H77.2998V260.742H121.09V353.562H133.5V260.742H177.29V248.332H134.23C137.25 229.142 154.39 214.332 173.95 214.332H177.54V201.922H173.95C147.49 201.922 124.8 222.202 121.7 248.332H121.71Z" fill="#151529"/>
<path d="M391.15 294.59H352.11C342.73 294.59 335.1 286.96 335.1 277.58C335.1 268.2 342.73 260.57 352.1 260.57L406.96 260.67L406.98 248.26L352.1 248.16C335.88 248.16 322.69 261.36 322.69 277.57C322.69 293.78 335.89 306.98 352.1 306.98H391.14C400.52 306.98 408.15 314.61 408.15 323.99C408.15 333.37 400.52 341 391.14 341H321.53V353.41H391.14C407.36 353.41 420.55 340.21 420.55 324C420.55 307.79 407.35 294.59 391.14 294.59H391.15Z" fill="#151529"/>
<path d="M527.1 341.141C504.93 341.141 486.9 323.101 486.9 300.941V260.661H530.44V248.251H486.9V209.301H474.49V248.251H430.45V260.661H474.49V300.941C474.49 329.951 498.09 353.551 527.1 353.551H530.69V341.141H527.1Z" fill="#151529"/>
<path d="M277.73 11.11H280.06V0H277.73C124.59 0 0 124.59 0 277.73C0 430.87 124.59 555.46 277.73 555.46H280.06V544.35H277.73C130.71 544.35 11.11 424.74 11.11 277.73C11.11 130.72 130.72 11.11 277.73 11.11Z" fill="#E7313B"/>
</g>
<defs>
<clipPath id="clip0_140_117">
<rect width="530.69" height="555.47" fill="white"/>
</clipPath>
</defs>
</svg>
