<svg width="144" height="24" xmlns="http://www.w3.org/2000/svg"><path d="M12.05 0c7.873 0 11.715 4.087 12.049 8.882h-4.817c-.416-3.024-3.558-4.687-7.232-4.687-3.698 0-6.293 1.187-6.293 2.997 0 1.393 3.125 2.006 6.293 2.508 7.533 1.194 12.39 2.3 12.39 7.023C24.44 21.51 19.072 24 12.05 24 6.06 24 .406 21.074 0 15.118h4.818c.413 3.035 3.557 4.687 7.232 4.687 4.337 0 7.16-1.142 7.16-3.082 0-1.361-3.953-2.339-7.16-2.81C5.192 12.902.707 12 .707 7.191.707 3.922 4.4 0 12.05 0zm120.483 0C141.509 0 144 5.012 144 8.238l-.011 14.767v.679h-4.796v-2.175c-2.236 1.705-5.203 2.491-8.73 2.491-5.726 0-10.476-2.268-10.476-7.42 0-4.08 4.67-6.248 12.184-7.24 3.73-.492 7.01-.803 7.01-.803 0-2.707-1.357-4.397-6.648-4.397-3.674 0-6.612 1.64-7.027 4.625h-4.92C120.92 4.033 125.482 0 132.533 0zm-26.317 0c6.18 0 11.207 4.931 11.207 10.992v12.692h-4.795V10.992c0-3.468-2.876-6.289-6.412-6.289-3.535 0-6.412 2.821-6.412 6.29v12.69H95.01v-12.69C95.01 4.93 100.037 0 106.216 0zm-42.11 0c1.494 0 2.921.289 4.226.812L66.54 5.174a6.488 6.488 0 00-2.434-.47c-3.536 0-6.412 2.82-6.412 6.288v12.692h-4.795V10.992C52.899 4.931 57.926 0 64.106 0zm16.35 0c6.657 0 12.073 5.312 12.073 11.842 0 .805-.083 1.591-.24 2.352H73.585c.994 2.784 3.698 4.787 6.871 4.787h2.226v4.703h-2.226c-6.657 0-12.073-5.312-12.073-11.842S73.799 0 80.456 0zM38.468 0c6.658 0 12.073 5.312 12.073 11.842 0 .805-.083 1.591-.24 2.352H31.599c.993 2.784 3.697 4.787 6.87 4.787h2.226v4.703h-2.226c-6.657 0-12.073-5.312-12.073-11.842S31.811 0 38.468 0zm100.725 12.786s-4.177.362-7.022.78c-3.216.473-6.983 1.309-6.983 3.138 0 2.17 3.194 3.1 6.93 3.1 3.396 0 7.075-1.68 7.075-4.87zM80.456 4.703c-3.173 0-5.877 2.003-6.87 4.787h13.74c-.993-2.784-3.697-4.787-6.87-4.787zm-41.988 0c-3.173 0-5.877 2.003-6.87 4.787h13.741c-.994-2.784-3.697-4.787-6.87-4.787z" fill="#F24A38" fill-rule="evenodd"/></svg>